<svg width="48" height="48" viewBox="0 0 48 48" fill="none" xmlns="http://www.w3.org/2000/svg">
  <path
    d="M24 4C26.2 10.4 32.8 13.7 33.1 22.1C33.3 27.5 29.7 31.8 29.7 31.8C31.9 29.8 35.2 25.3 35.2 19.6C39.7 23.7 42.5 29.1 42.5 34C42.5 41.1 35.3 46 27.2 46C16.6 46 8 38.3 8 28.9C8 21.3 12.8 15 17.2 10.8C17.3 15.1 19.6 18.7 22.6 20.8C21.8 16.5 22.4 10.3 24 4Z"
    fill="url(#cerberusFlameFill)"
  />
  <path
    d="M24.2 16C25.7 20.3 29.8 22.5 29.9 28.1C30 31.8 27.7 34.7 27.7 34.7C29.1 33.4 31.1 30.5 31.1 26.7C33.9 29.4 35.7 32.9 35.7 36.1C35.7 40.7 31 43.8 25.8 43.8C19 43.8 13.6 38.8 13.6 32.7C13.6 27.8 16.7 23.7 19.5 21C19.5 23.8 21 26.1 22.9 27.5C22.4 24.8 22.8 20.7 24.2 16Z"
    fill="url(#cerberusFlameCore)"
  />
  <defs>
    <linearGradient id="cerberusFlameFill" x1="25.2" y1="4" x2="25.2" y2="46" gradientUnits="userSpaceOnUse">
      <stop offset="0.02" stop-color="#1A0808"/>
      <stop offset="0.34" stop-color="#4A0A0A"/>
      <stop offset="0.68" stop-color="#B51A16"/>
      <stop offset="1" stop-color="#F4682F"/>
    </linearGradient>
    <linearGradient id="cerberusFlameCore" x1="24.65" y1="16" x2="24.65" y2="43.8" gradientUnits="userSpaceOnUse">
      <stop offset="0" stop-color="#FFD18F"/>
      <stop offset="0.34" stop-color="#FF8D53"/>
      <stop offset="0.78" stop-color="#D62922"/>
      <stop offset="1" stop-color="#5B0606"/>
    </linearGradient>
  </defs>
</svg>
