<svg xmlns="http://www.w3.org/2000/svg" viewBox="0 0 76 36" aria-hidden="true">
  <defs>
    <linearGradient id="crescentiaMoonFill" x1="12" y1="4" x2="64" y2="32" gradientUnits="userSpaceOnUse">
      <stop offset="0" stop-color="#8ff7ff" />
      <stop offset="1" stop-color="#4fb3ff" />
    </linearGradient>
  </defs>
  <path
    fill="url(#crescentiaMoonFill)"
    fill-rule="evenodd"
    d="M24.5 18c0-6.3 4.4-11.3 10.5-12.8-1.6-.5-3.3-.8-5-.8-8.1 0-14.6 6.1-14.6 13.6S21.9 31.6 30 31.6c1.7 0 3.4-.3 5-.8-6.1-1.5-10.5-6.5-10.5-12.8Z"
    clip-rule="evenodd"
  />
  <path
    fill="url(#crescentiaMoonFill)"
    fill-rule="evenodd"
    d="M51.5 18c0 6.3-4.4 11.3-10.5 12.8 1.6.5 3.3.8 5 .8 8.1 0 14.6-6.1 14.6-13.6S54.1 4.4 46 4.4c-1.7 0-3.4.3-5 .8 6.1 1.5 10.5 6.5 10.5 12.8Z"
    clip-rule="evenodd"
  />
</svg>
