<svg xmlns="http://www.w3.org/2000/svg" viewBox="0 0 64 64">
  <defs>
    <linearGradient id="bg" x1="10" y1="12" x2="54" y2="54" gradientUnits="userSpaceOnUse">
      <stop offset="0" stop-color="#1af6ff"/>
      <stop offset=".58" stop-color="#177bb7"/>
      <stop offset="1" stop-color="#0f1d36"/>
    </linearGradient>
  </defs>
  <circle cx="32" cy="32" r="30" fill="#081624"/>
  <circle cx="32" cy="32" r="28" fill="url(#bg)" opacity=".24"/>
  <ellipse cx="32" cy="53" rx="16" ry="6" fill="#041019" opacity=".25"/>
  <path d="M18 48c1-9 7-14 14-14 7 0 13 5 14 14" fill="#1d3b67"/>
  <rect x="23" y="19" width="18" height="18" rx="8.5" fill="#d4f7ff"/>
  <rect x="23" y="22" width="18" height="8" rx="4" fill="#163052"/>
  <path d="M26 26h12" stroke="#6ffcff" stroke-width="2" stroke-linecap="round"/>
  <circle cx="29.5" cy="33.5" r="1.2" fill="#1c2945"/>
  <circle cx="34.5" cy="33.5" r="1.2" fill="#1c2945"/>
  <path d="M29 36c2 1 4 1 6 0" stroke="#688bb2" stroke-width="1.6" stroke-linecap="round" fill="none"/>
  <path d="M25 49c2-7 5-12 7-13 4 1 7 6 7 13" fill="#29d4ff"/>
  <path d="M32 15v5" stroke="#b4feff" stroke-width="2.2" stroke-linecap="round"/>
  <circle cx="32" cy="12" r="2.4" fill="#79fff5"/>
  <path d="M45 25l3 15" stroke="#8ee2ff" stroke-width="2.2" stroke-linecap="round"/>
  <path d="M43 27h7l-2 5h-7Z" fill="#5ffeff"/>
</svg>
