<svg xmlns="http://www.w3.org/2000/svg" viewBox="0 0 64 64">
  <defs>
    <linearGradient id="bg" x1="14" y1="10" x2="50" y2="54" gradientUnits="userSpaceOnUse">
      <stop offset="0" stop-color="#5c648d"/>
      <stop offset=".55" stop-color="#241a35"/>
      <stop offset="1" stop-color="#0f1018"/>
    </linearGradient>
  </defs>
  <circle cx="32" cy="32" r="30" fill="url(#bg)"/>
  <ellipse cx="32" cy="54" rx="16" ry="5.8" fill="#000" opacity=".2"/>
  <path d="M18 50c2-9 8-14 14-14s12 5 14 14" fill="#4d3d6b"/>
  <path d="M19 29c3-10 8-16 13-16s10 6 13 16l-5-2-8 9-8-9Z" fill="#15131f"/>
  <path d="M24.5 29.8c0-4.7 3.3-8.3 7.5-8.3s7.5 3.6 7.5 8.3v1.5c0 4.5-3.3 7.7-7.5 7.7s-7.5-3.2-7.5-7.7Z" fill="#e8d2c5"/>
  <path d="M25.8 29.5h12.4" stroke="#c9c0ff" stroke-width="2.1" stroke-linecap="round"/>
  <circle cx="29.5" cy="30.2" r="1.15" fill="#e9e6ff"/>
  <circle cx="34.5" cy="30.2" r="1.15" fill="#e9e6ff"/>
  <path d="M29.8 34c1.5.8 2.9.8 4.4 0" stroke="#b7aad8" stroke-width="1.5" stroke-linecap="round" fill="none"/>
  <path d="M43 23.5l3 16.5" stroke="#c7bdff" stroke-width="2.1" stroke-linecap="round"/>
  <circle cx="45.2" cy="20.6" r="3.1" fill="none" stroke="#c7bdff" stroke-width="1.3"/>
  <path d="M48.2 20.6H51" stroke="#c7bdff" stroke-width="1.1" stroke-linecap="round"/>
</svg>
