<svg xmlns="http://www.w3.org/2000/svg" viewBox="0 0 64 64">
  <defs>
    <linearGradient id="bg" x1="12" y1="8" x2="52" y2="56" gradientUnits="userSpaceOnUse">
      <stop offset="0" stop-color="#8ff7ff"/>
      <stop offset=".5" stop-color="#6db0ff"/>
      <stop offset="1" stop-color="#ff8ccf"/>
    </linearGradient>
  </defs>
  <circle cx="32" cy="32" r="30" fill="#101826"/>
  <circle cx="32" cy="32" r="28" fill="url(#bg)" opacity=".2"/>
  <path d="M19 49c1-10 7-16 13-16s12 6 13 16" fill="#2a4e63"/>
  <path d="M23 26l4-10 5 6 5-6 4 10-9 4z" fill="#d3f7ff"/>
  <circle cx="32" cy="28" r="9" fill="#ffd9c7"/>
  <path d="M23 25c2-6 6-9 9-9 4 0 8 3 9 9-4-2-6-3-9-3s-5 1-9 3Z" fill="#f9fcff"/>
  <circle cx="29" cy="28" r="1.2" fill="#2d2a40"/>
  <circle cx="35" cy="28" r="1.2" fill="#2d2a40"/>
  <path d="M29 32c2 1 4 1 6 0" stroke="#a45d7a" stroke-linecap="round" stroke-width="1.6" fill="none"/>
  <path d="M21 50c1-9 7-15 11-15s10 6 11 15" fill="#59d7da"/>
  <path d="M17 22l5 4-5 3z" fill="#8bf8ff"/>
  <path d="M47 36c4 2 5 8 2 11-3 3-8 2-11-2 3-2 6-5 9-9Z" fill="#ffd2f0" opacity=".85"/>
  <path d="M44 27l2 14" stroke="#b5ecff" stroke-width="2.3" stroke-linecap="round"/>
  <circle cx="46.5" cy="23.5" r="4.5" fill="#9dfff9"/>
  <circle cx="46.5" cy="23.5" r="2.1" fill="#fff6ff"/>
</svg>
