<svg xmlns="http://www.w3.org/2000/svg" viewBox="0 0 64 64">
  <defs>
    <linearGradient id="bg" x1="10" y1="8" x2="50" y2="56" gradientUnits="userSpaceOnUse">
      <stop offset="0" stop-color="#ffcf70"/>
      <stop offset=".52" stop-color="#ff8b69"/>
      <stop offset="1" stop-color="#9b4260"/>
    </linearGradient>
  </defs>
  <circle cx="32" cy="32" r="30" fill="url(#bg)"/>
  <ellipse cx="32" cy="54" rx="15" ry="5.5" fill="#54263d" opacity=".24"/>
  <path d="M20 49c1-9 6-14 12-14 6 0 11 5 12 14" fill="#8e3856"/>
  <circle cx="32" cy="28" r="9" fill="#ffd7bf"/>
  <path d="M22 26c1-6 6-10 10-10 3 0 7 3 9 7l-4 3c-3-2-7-2-15 0Z" fill="#7f3f2d"/>
  <path d="M22 24c5-5 13-8 19-1l-2 6c-5-3-10-4-17-1Z" fill="#a7552f"/>
  <path d="M41 17c3 1 6 4 6 7-4 0-7-2-8-5Z" fill="#ffd877"/>
  <circle cx="29" cy="28" r="1.2" fill="#2f2332"/>
  <circle cx="35" cy="28" r="1.2" fill="#2f2332"/>
  <path d="M29 32c2 1 4 1 6 0" stroke="#9a5a56" stroke-width="1.6" stroke-linecap="round" fill="none"/>
  <path d="M24 50c2-7 5-12 8-13 4 1 7 6 8 13" fill="#ffba55"/>
  <ellipse cx="38.5" cy="41" rx="4.3" ry="5.5" fill="#7a4d2c"/>
  <circle cx="38.5" cy="41" r="1.2" fill="#ffd7bf"/>
  <path d="M34 41h9" stroke="#f4d8ad" stroke-width="1.4" stroke-linecap="round"/>
</svg>
