<svg xmlns="http://www.w3.org/2000/svg" viewBox="0 0 64 64">
  <defs>
    <linearGradient id="bg" x1="10" y1="8" x2="50" y2="56" gradientUnits="userSpaceOnUse">
      <stop offset="0" stop-color="#ffcf70"/>
      <stop offset=".52" stop-color="#ff8b69"/>
      <stop offset="1" stop-color="#9b4260"/>
    </linearGradient>
  </defs>
  <circle cx="32" cy="32" r="30" fill="url(#bg)"/>
  <ellipse cx="32" cy="54" rx="15.5" ry="5.5" fill="#54263d" opacity=".24"/>
  <path d="M19 50c2-9 7-14 13-14 6 0 11 5 13 14" fill="#ffb65b"/>
  <path d="M20 29c2-9 7-15 12-15 5 0 10 6 12 15l-5-1-7 8-7-8Z" fill="#8b4a34"/>
  <path d="M24.5 30c0-4.6 3.3-8.1 7.5-8.1s7.5 3.5 7.5 8.1v1.4c0 4.5-3.3 7.8-7.5 7.8s-7.5-3.3-7.5-7.8Z" fill="#f2d3ba"/>
  <circle cx="29.4" cy="30.5" r="1.2" fill="#352a34"/>
  <circle cx="34.6" cy="30.5" r="1.2" fill="#352a34"/>
  <path d="M29.5 34.2c1.6.9 3.4.9 5 0" stroke="#82635f" stroke-width="1.5" stroke-linecap="round" fill="none"/>
  <path d="M41 19.5c4.4 1.2 6.8 4.4 7.1 8-4.1-.2-7-1.9-8.9-5.1Z" fill="#ffd877"/>
  <path d="M44 39v8.5" stroke="#f4ddb3" stroke-width="1.8" stroke-linecap="round"/>
  <path d="M40.5 39.5h7l-1.4 4.8h-6.8Z" fill="#7f532f"/>
  <circle cx="44" cy="47.2" r="3.2" fill="#ffd47e"/>
</svg>
