<svg xmlns="http://www.w3.org/2000/svg" viewBox="0 0 64 64">
  <defs>
    <linearGradient id="bg" x1="12" y1="8" x2="52" y2="56" gradientUnits="userSpaceOnUse">
      <stop offset="0" stop-color="#8ff7ff"/>
      <stop offset=".5" stop-color="#6db0ff"/>
      <stop offset="1" stop-color="#ff8ccf"/>
    </linearGradient>
  </defs>
  <circle cx="32" cy="32" r="30" fill="#101826"/>
  <circle cx="32" cy="32" r="28" fill="url(#bg)" opacity=".22"/>
  <ellipse cx="32" cy="54" rx="16" ry="5.5" fill="#07131a" opacity=".24"/>
  <path d="M18 50c2-10 7-15 14-15s12 5 14 15" fill="#4fd1d7"/>
  <path d="M20 29c2-10 7-16 12-16s10 6 12 16l-5-1-7 8-7-8Z" fill="#d8fdff"/>
  <path d="M24.5 30.5c0-4.6 3.3-8.5 7.5-8.5s7.5 3.9 7.5 8.5V32c0 4.7-3.3 8-7.5 8s-7.5-3.3-7.5-8Z" fill="#f3dec8"/>
  <circle cx="29.5" cy="30.5" r="1.25" fill="#273145"/>
  <circle cx="34.5" cy="30.5" r="1.25" fill="#273145"/>
  <path d="M29.5 34c1.6 1 3.4 1 5 0" stroke="#4f5e75" stroke-width="1.6" stroke-linecap="round" fill="none"/>
  <path d="M27 18.5l3.2 4 1.8-3.1 1.8 3.1 3.2-4 2.8 7.2H24.2Z" fill="#f8ffff"/>
  <path d="M22 24l-5 3.3 5 2.7Z" fill="#9cfbff"/>
  <path d="M44.5 24.5 47 41.5" stroke="#b8efff" stroke-width="2.4" stroke-linecap="round"/>
  <path d="M42.4 26.8h7.3l-1.6 4.9h-7.2Z" fill="#9bfff9"/>
</svg>
