<svg xmlns="http://www.w3.org/2000/svg" viewBox="0 0 64 64">
  <defs>
    <linearGradient id="bg" x1="10" y1="8" x2="52" y2="56" gradientUnits="userSpaceOnUse">
      <stop offset="0" stop-color="#f8e5b8"/>
      <stop offset=".55" stop-color="#7a8db6"/>
      <stop offset="1" stop-color="#21334f"/>
    </linearGradient>
  </defs>
  <circle cx="32" cy="32" r="30" fill="url(#bg)"/>
  <ellipse cx="32" cy="54" rx="16" ry="6" fill="#23334c" opacity=".2"/>
  <path d="M19 49c2-10 8-15 13-15 6 0 11 5 13 15" fill="#7d6f5a"/>
  <path d="M20 27c2-9 7-14 12-14 6 0 11 5 12 14l-5-1c-2-4-4-5-7-5-3 0-5 1-7 5Z" fill="#b4956c"/>
  <circle cx="32" cy="29" r="8.2" fill="#f1d8c3"/>
  <path d="M23.5 27c1-5 5-8 8.5-8 3.5 0 7.5 3 8.5 8-5-1-12-1-17 0Z" fill="#8f7756"/>
  <circle cx="29" cy="29.4" r="1.15" fill="#304463"/>
  <circle cx="35" cy="29.4" r="1.15" fill="#304463"/>
  <path d="M29 33c2 1 4 1 6 0" stroke="#ad7b63" stroke-width="1.6" stroke-linecap="round" fill="none"/>
  <path d="M24 49c2-7 5-12 8-13 4 1 7 6 8 13" fill="#d8c6a3"/>
  <path d="M44 20l3 17" stroke="#b5bfcf" stroke-width="2.1" stroke-linecap="round"/>
  <path d="M45 18h9" stroke="#6cf5ff" stroke-width="3.2" stroke-linecap="round"/>
</svg>
