<svg xmlns="http://www.w3.org/2000/svg" viewBox="0 0 64 64">
  <defs>
    <linearGradient id="bg" x1="10" y1="8" x2="52" y2="56" gradientUnits="userSpaceOnUse">
      <stop offset="0" stop-color="#d7b774"/>
      <stop offset=".5" stop-color="#8e5d3f"/>
      <stop offset="1" stop-color="#3a2418"/>
    </linearGradient>
  </defs>
  <circle cx="32" cy="32" r="30" fill="url(#bg)"/>
  <ellipse cx="32" cy="54" rx="16" ry="6" fill="#28180f" opacity=".2"/>
  <path d="M19 49c2-9 7-14 13-14 6 0 11 5 13 14" fill="#6b4430"/>
  <circle cx="32" cy="28.5" r="8.7" fill="#ffd8c1"/>
  <path d="M22 26c2-5 5-9 10-9 4 0 8 3 9 9-5-2-9-2-19 0Z" fill="#7a4a21"/>
  <path d="M25 18h14l-2 5H27Z" fill="#c79b52"/>
  <path d="M27 15h3l1 3-2 2h-3Z" fill="#e7c36e"/>
  <path d="M34 15h3l2 3-1 2h-4Z" fill="#e7c36e"/>
  <circle cx="29" cy="28.6" r="1.15" fill="#2f2219"/>
  <circle cx="35" cy="28.6" r="1.15" fill="#2f2219"/>
  <path d="M29 32.5c2 1 4 1 6 0" stroke="#b16f61" stroke-width="1.6" stroke-linecap="round" fill="none"/>
  <path d="M24 49c2-7 5-12 8-13 4 1 7 6 8 13" fill="#86a36d"/>
  <path d="M44 23l2 16" stroke="#f1e3c0" stroke-width="2.1" stroke-linecap="round"/>
  <path d="M45 22h7l-1 4h-7Z" fill="#cfd7e6"/>
</svg>
