<svg xmlns="http://www.w3.org/2000/svg" viewBox="0 0 64 64">
  <defs>
    <linearGradient id="bg" x1="10" y1="8" x2="52" y2="56" gradientUnits="userSpaceOnUse">
      <stop offset="0" stop-color="#d7b774"/>
      <stop offset=".5" stop-color="#8e5d3f"/>
      <stop offset="1" stop-color="#3a2418"/>
    </linearGradient>
  </defs>
  <circle cx="32" cy="32" r="30" fill="url(#bg)"/>
  <ellipse cx="32" cy="54" rx="16" ry="6" fill="#28180f" opacity=".2"/>
  <path d="M19 50c2-9 7-14 13-14 6 0 11 5 13 14" fill="#86a36d"/>
  <path d="M21 30c2-9 7-15 11-15 5 0 10 6 11 15l-4.5-2.2-6.5 7.4-6.5-7.4Z" fill="#7a4a21"/>
  <path d="M24.7 30.6c0-4.4 3.1-7.8 7.3-7.8s7.3 3.4 7.3 7.8v1.1c0 4.3-3.1 7.5-7.3 7.5s-7.3-3.2-7.3-7.5Z" fill="#f0d5b8"/>
  <path d="M25.2 21h13.6l-1.8 4.6H27Z" fill="#c79b52"/>
  <path d="M29.2 18h5.6l1.2 3H28Z" fill="#e7c36e"/>
  <circle cx="29.4" cy="30.8" r="1.1" fill="#2f2219"/>
  <circle cx="34.6" cy="30.8" r="1.1" fill="#2f2219"/>
  <path d="M29.5 34.2c1.6.8 3.4.8 5 0" stroke="#8b6b62" stroke-width="1.5" stroke-linecap="round" fill="none"/>
  <path d="M44 23l2 16" stroke="#f1e3c0" stroke-width="2.1" stroke-linecap="round"/>
  <path d="M45 22h7l-1 4h-7Z" fill="#cfd7e6"/>
</svg>
