<svg xmlns="http://www.w3.org/2000/svg" viewBox="0 0 64 64">
  <circle cx="32" cy="32" r="30" fill="#f2e2bf"/>
  <circle cx="32" cy="32" r="28" fill="#f8edd3"/>
  <ellipse cx="32" cy="54" rx="15" ry="5" fill="#8d6f45" opacity=".15"/>
  <path d="M19.8 49.5c1.5-8.8 6.8-13.8 12.2-13.8s10.7 5 12.2 13.8" fill="#fff8ea" stroke="#654c2f" stroke-width="1.5" stroke-linejoin="round"/>
  <path d="M20.6 29.2c2.3-9.6 7.1-15.1 11.4-15.1s9.1 5.5 11.4 15.1l-4.9-1.5-6.5 7.8-6.5-7.8Z" fill="#f5e4bf" stroke="#654c2f" stroke-width="1.5" stroke-linejoin="round"/>
  <path d="M24.8 30.1c0-4.7 3.2-8.2 7.2-8.2s7.2 3.5 7.2 8.2v1.2c0 4.4-3.2 7.6-7.2 7.6s-7.2-3.2-7.2-7.6Z" fill="#f7e8ca" stroke="#654c2f" stroke-width="1.3"/>
  <circle cx="29.2" cy="30.2" r="1.1" fill="#654c2f"/>
  <circle cx="34.8" cy="30.2" r="1.1" fill="#654c2f"/>
  <path d="M29.5 33.8c1.6.8 3.4.8 5 0" stroke="#654c2f" stroke-width="1.4" stroke-linecap="round" fill="none"/>
  <path d="M43.2 23.7 48 39.8" stroke="#654c2f" stroke-width="1.7" stroke-linecap="round"/>
  <path d="M43.5 21.3c3.9 0 5.2 1.9 5.4 4.1-3.1.1-5.2-.9-6.1-2.8Z" fill="#654c2f"/>
</svg>
