<svg xmlns="http://www.w3.org/2000/svg" viewBox="0 0 64 64">
  <circle cx="32" cy="32" r="30" fill="#f2e2bf"/>
  <circle cx="32" cy="32" r="28" fill="#f8edd3"/>
  <ellipse cx="32" cy="54" rx="15" ry="5" fill="#8d6f45" opacity=".15"/>
  <path d="M20 49c1-9 7-14 12-14 6 0 11 5 12 14" fill="#d8c196" stroke="#654c2f" stroke-width="1.6" stroke-linejoin="round"/>
  <circle cx="32" cy="28" r="8.8" fill="#f7e8ca" stroke="#654c2f" stroke-width="1.6"/>
  <path d="M22 26c2-5 6-9 10-9 3 0 7 2 9 8-3-2-6-3-9-3s-6 1-10 4Z" fill="#8d6f45" stroke="#654c2f" stroke-width="1.3" stroke-linejoin="round"/>
  <circle cx="29" cy="28.5" r="1.15" fill="#654c2f"/>
  <circle cx="35" cy="28.5" r="1.15" fill="#654c2f"/>
  <path d="M29 32.2c2 1 4 1 6 0" stroke="#654c2f" stroke-width="1.5" stroke-linecap="round" fill="none"/>
  <path d="M25 49c2-7 5-11 7-12 3 1 6 5 7 12" fill="#fff8ea" stroke="#654c2f" stroke-width="1.4" stroke-linejoin="round"/>
  <path d="M43 24l5 16" stroke="#654c2f" stroke-width="1.8" stroke-linecap="round"/>
  <path d="M44 21c4 0 5 2 5 4-3 0-5-1-6-3Z" fill="#654c2f"/>
</svg>
