<svg xmlns="http://www.w3.org/2000/svg" viewBox="0 0 64 64">
  <defs>
    <linearGradient id="bg" x1="12" y1="10" x2="52" y2="56" gradientUnits="userSpaceOnUse">
      <stop offset="0" stop-color="#75121d"/>
      <stop offset=".55" stop-color="#21070c"/>
      <stop offset="1" stop-color="#09070a"/>
    </linearGradient>
  </defs>
  <circle cx="32" cy="32" r="30" fill="url(#bg)"/>
  <ellipse cx="32" cy="54" rx="16" ry="6" fill="#000" opacity=".25"/>
  <path d="M19 50c2-10 7-15 13-15 6 0 11 5 13 15" fill="#30242b"/>
  <path d="M20 29c2-10 7-16 12-16 6 0 11 6 12 16l-5-2-7 9-7-9Z" fill="#120d11"/>
  <path d="M24.8 30.2c0-4.5 3.2-8.1 7.2-8.1s7.2 3.6 7.2 8.1v1.2c0 4.4-3.2 7.7-7.2 7.7s-7.2-3.3-7.2-7.7Z" fill="#d9c7bb"/>
  <path d="M27.5 30.4h3.2" stroke="#ff3e51" stroke-width="1.8" stroke-linecap="round"/>
  <path d="M33.3 30.4h3.2" stroke="#ff3e51" stroke-width="1.8" stroke-linecap="round"/>
  <path d="M29.4 34c1.5.8 3.3.8 4.8 0" stroke="#7e4b56" stroke-width="1.5" stroke-linecap="round" fill="none"/>
  <path d="M44 20l3 17" stroke="#b8b0b5" stroke-width="2.1" stroke-linecap="round"/>
  <path d="M45 18h9" stroke="#ff3048" stroke-width="3.2" stroke-linecap="round"/>
</svg>
