<svg xmlns="http://www.w3.org/2000/svg" viewBox="0 0 64 64">
  <defs>
    <linearGradient id="bg" x1="12" y1="10" x2="52" y2="56" gradientUnits="userSpaceOnUse">
      <stop offset="0" stop-color="#75121d"/>
      <stop offset=".55" stop-color="#21070c"/>
      <stop offset="1" stop-color="#09070a"/>
    </linearGradient>
  </defs>
  <circle cx="32" cy="32" r="30" fill="url(#bg)"/>
  <ellipse cx="32" cy="54" rx="16" ry="6" fill="#000" opacity=".25"/>
  <path d="M19 49c2-10 7-15 13-15 6 0 11 5 13 15" fill="#1a1419"/>
  <path d="M20 27c2-9 7-14 12-14 6 0 11 5 12 14l-5-1c-2-4-4-5-7-5-3 0-5 1-7 5Z" fill="#23181c"/>
  <circle cx="32" cy="29" r="8.2" fill="#d9c7bb"/>
  <path d="M23.5 27c1-5 5-8 8.5-8 3.5 0 7.5 3 8.5 8-5-1-12-1-17 0Z" fill="#120d11"/>
  <path d="M27.8 29.5h3.2" stroke="#ff3e51" stroke-width="1.8" stroke-linecap="round"/>
  <path d="M33 29.5h3.2" stroke="#ff3e51" stroke-width="1.8" stroke-linecap="round"/>
  <path d="M29 33c2 1 4 1 6 0" stroke="#7e4b56" stroke-width="1.6" stroke-linecap="round" fill="none"/>
  <path d="M24 49c2-7 5-12 8-13 4 1 7 6 8 13" fill="#30242b"/>
  <path d="M44 20l3 17" stroke="#b8b0b5" stroke-width="2.1" stroke-linecap="round"/>
  <path d="M45 18h9" stroke="#ff3048" stroke-width="3.2" stroke-linecap="round"/>
</svg>
