<svg xmlns="http://www.w3.org/2000/svg" viewBox="0 0 64 64">
  <defs>
    <linearGradient id="sky" x1="32" y1="6" x2="32" y2="42" gradientUnits="userSpaceOnUse">
      <stop offset="0" stop-color="#6cbcff"/>
      <stop offset="1" stop-color="#d3f4ff"/>
    </linearGradient>
  </defs>
  <circle cx="32" cy="32" r="30" fill="#3f8dde"/>
  <circle cx="32" cy="32" r="28" fill="url(#sky)"/>
  <path d="M7 42c8-1 18 4 25 4s13-5 25-2v16H7Z" fill="#6dcb5d"/>
  <path d="M19 49c2-8.5 7-13 12.5-13S42 40.5 44 49" fill="#ffd94f"/>
  <path d="M20.2 28.8c2.6-9.5 7.1-14.9 11.3-14.9s8.7 5.4 11.3 14.9l-5-1.4-6.3 7.6-6.3-7.6Z" fill="#5aa7ff"/>
  <path d="M24.4 29.6c0-4.5 3.1-8 7.1-8s7.1 3.5 7.1 8v1.3c0 4.3-3.1 7.4-7.1 7.4s-7.1-3.1-7.1-7.4Z" fill="#f4d9bf"/>
  <circle cx="28.8" cy="29.9" r="1.1" fill="#26435e"/>
  <circle cx="34.2" cy="29.9" r="1.1" fill="#26435e"/>
  <path d="M29 33.3c1.4.8 3.6.8 5 0" stroke="#6d6574" stroke-width="1.4" stroke-linecap="round" fill="none"/>
  <path d="M15.5 20.8c2.2-3.8 6.1-4.7 8.9-2.7-.5 2.7-3.2 4.5-7.2 4.8Z" fill="#fff"/>
  <path d="M39.2 17.2c2.1-3.7 6.4-4 9-1.4-1 2.6-4 3.9-8 3.7Z" fill="#fff"/>
</svg>
