<svg xmlns="http://www.w3.org/2000/svg" viewBox="0 0 64 64">
  <defs>
    <linearGradient id="sky" x1="32" y1="6" x2="32" y2="42" gradientUnits="userSpaceOnUse">
      <stop offset="0" stop-color="#6cbcff"/>
      <stop offset="1" stop-color="#d3f4ff"/>
    </linearGradient>
  </defs>
  <circle cx="32" cy="32" r="30" fill="#3f8dde"/>
  <circle cx="32" cy="32" r="28" fill="url(#sky)"/>
  <path d="M7 41c8-1 18 5 25 5s13-6 25-3v17H7Z" fill="#6dcb5d"/>
  <path d="M18 49c1-8 6-13 13-13 6 0 11 5 13 13" fill="#4c9be8"/>
  <circle cx="31.5" cy="29" r="8.6" fill="#ffd9c1"/>
  <path d="M22 28c1-6 5-11 9-11 4 0 8 4 10 11l-5-1-4-5-4 5Z" fill="#2e63b3"/>
  <path d="M32 16l9 12h-6l-2 4-2-4h-8Z" fill="#5aa7ff"/>
  <circle cx="28.5" cy="29" r="1.15" fill="#26435e"/>
  <circle cx="34.5" cy="29" r="1.15" fill="#26435e"/>
  <path d="M29 33c1.5 1 4.5 1 6 0" stroke="#b46c62" stroke-width="1.6" stroke-linecap="round" fill="none"/>
  <path d="M25 49c2-6 4-10 7-12 3 2 5 6 7 12" fill="#ffd94f"/>
  <path d="M16 21c2-4 6-5 9-3 0 3-3 5-7 5Z" fill="#fff"/>
  <path d="M38 17c2-4 7-4 10-1-1 3-5 4-9 3Z" fill="#fff"/>
</svg>
